<svg id="Layer_1" data-name="Layer 1" xmlns="http://www.w3.org/2000/svg" viewBox="0 0 612 792"><defs><style>.cls-1{fill:#eeeb68;}.cls-2{fill:#383838;}.cls-3{fill:#e7e8e9;}.cls-4{fill:#bcbec0;}.cls-5{fill:#fffef6;stroke:#fcfcf5;}.cls-10,.cls-11,.cls-12,.cls-13,.cls-14,.cls-15,.cls-16,.cls-17,.cls-18,.cls-19,.cls-5{stroke-miterlimit:10;}.cls-15,.cls-6{fill:#231f20;}.cls-7{fill:#fff;}.cls-8{fill:#f9b4a2;}.cls-9{fill:#f1f2f2;}.cls-10,.cls-11,.cls-12,.cls-13,.cls-14,.cls-15,.cls-16,.cls-17,.cls-18,.cls-19{font-size:58px;stroke:#231f20;stroke-width:0.75px;font-family:AGBookRounded-BoldCn, AG Book Rounded;font-weight:700;}.cls-10{fill:#ef3e73;}.cls-11{fill:#74bbe8;}.cls-12{fill:#fcb32f;}.cls-13{fill:#f8bacd;}.cls-14{fill:#ef5384;}.cls-16{fill:#a554a1;}.cls-17{fill:#cd72ae;}.cls-18{fill:#6fbf58;}.cls-19{fill:#81d1e0;}</style></defs><title>Artboard 1toothpain</title><rect class="cls-1" width="612" height="792"/><ellipse class="cls-2" cx="220.05" cy="603.22" rx="160.16" ry="32"/><path class="cls-3" d="M354.22,550.09c-1.47-.74.1-7,17.46-93.4,11.11-55.33,11.32-57,14.22-69.89C389,373.17,390.78,366,393,352.89c4.65-27.1,4.64-41.44,6.51-41.5,2.54-.09,6.84,26.46,7.08,54.55.16,19-1.46,47.87-13,89.92C380,505.7,358.41,552.19,354.22,550.09Z"/><path class="cls-3" d="M304.71,545.77c-6,2.65-12.89-16.91-30.82-18.64,10.69-5.36,19.6-4.64,20.46-9.7,1.2-7.13-14.61-20.09-27.65-16.59-8.1,2.18-12.1,9.9-15.2,15.9a60.77,60.77,0,0,0-5.95,18.75c-1.68,1.42-2.45,2.29-3,2-3-1.64.63-35.49,22.12-42.16,14.43-4.47,30,5.44,37.32,16.6C310.54,525,310.17,543.39,304.71,545.77Z"/><path class="cls-4" d="M294.35,517.43c-.86,5.06-9.77,4.34-20.46,9.7h0l-.28,0c-4.14-.35-16.22-.39-26.17,6.89-.74.54-1.36,1-1.89,1.49a60.77,60.77,0,0,1,5.95-18.75c3.1-6,7.1-13.72,15.2-15.9C279.74,497.34,295.55,510.3,294.35,517.43Z"/><path class="cls-3" d="M273.89,527.13a44.68,44.68,0,0,0-9.26,6.2C252.36,544,251.24,556.19,248,555.45c-2.61-.62-4.09-9.3-2.49-20,.53-.45,1.15-1,1.89-1.49,9.95-7.28,22-7.24,26.17-6.89Z"/><path class="cls-3" d="M202.08,215.83c.26-5.69,19.85-10.47,34.55-11.06s18,3.21,40.09,4.15a187,187,0,0,0,26.95-.69c19-2,23.17-5.88,36.63-7.6,22.56-2.88,46.16,3.49,46.3,8.29.13,3.88-20.19,7.94-60.81,15.9-48.55,9.5-59.28,9.53-67.73,9C231.16,232.06,201.76,222.89,202.08,215.83Z"/><path class="cls-4" d="M230.77,218.87c2.2-7.25,28.81-5.08,34.9-4.49,13.41,1.3,14,3.29,26.26,4.84,23.59,3,39.44-2.12,39.74-.69.34,1.64-20.69,8.43-45.61,11.75-16.9,2.25-45.48,5.78-53.91-6.57C231.48,222.74,230.19,220.78,230.77,218.87Z"/><path class="cls-5" d="M279.42,225.65c-8.7.1-16.12-1.83-31-5.67-25.16-6.52-28-11.19-44.62-12.94-7.81-.82-18.8-1.86-31.8,2.34-18.27,5.92-28.78,18.39-32.42,22.84-12.62,15.39-15.46,31.51-18,46.79-3.75,23-2.21,44.4,2,64.59,8.9,42.79,21.44,40.17,33.78,85.42,7.27,26.65,9.52,51.74,12.17,81.22,2.12,23.62,3.18,35.43,3.15,44.93-.1,32.86-5.45,45.11,3.62,57.7,10.47,14.53,30,15.51,31.24,15.55,16.23.57,28-9,31.1-11.75,33.25-29.29,5.74-96.3,26.26-105,8.82-3.76,22.31,5,29,13.82,17,22.18-6.52,47.86,7.6,71.18,12.73,21,49.87,29.94,68.42,16.59,2.87-2.07,11.25-9,15.2-38.7,5.68-42.66-8-55.15-6.74-89.92.7-19.12,10.09-41.29,28.86-85.62,19.17-45.27,24.47-46.27,32.48-74,9.07-31.34,17.47-60.37,2.76-87.08-14.55-26.44-43-34.84-47-35.94-28.91-8.06-57.76,3.11-70.54,8.06C305.61,217.6,298,225.46,279.42,225.65Z"/><path class="cls-6" d="M207.61,258.68c-18.19,2.57-41.44,18.74-39.39,41.47,1.4,15.55,14.24,29.73,30.4,32.48,20.83,3.55,37.27-13.56,42.85-28.34.56-1.47,8.82-24.36-4.84-38C226.38,256,211,258.2,207.61,258.68Z"/><path class="cls-6" d="M344.45,252.46c-23-2.91-52.86,14.88-51.84,34.56.76,14.55,18.21,26.25,33.18,29,17.7,3.28,41.06-4.23,47-22.11a32.36,32.36,0,0,0-6.22-30.41C358.78,254.44,348,252.91,344.45,252.46Z"/><circle class="cls-7" cx="206.56" cy="307.71" r="12.08"/><circle class="cls-7" cx="333.42" cy="291.18" r="12.08"/><path class="cls-8" d="M221.19,415.68c15,19.77,39.29,24.69,43.83,25.53,4.77.88,34.53,6.38,56.7-11.61,13.2-10.71,18.79-25.76,17.53-26.68s-9.39,15-28.05,24.36c-3,1.5-22.76,11.06-45,5.22-13.51-3.54-24.5-11.86-35.65-20.3C221.2,405.14,215,398.86,213.59,400S216.62,409.66,221.19,415.68Z"/><path class="cls-8" d="M230.74,387.35a57.37,57.37,0,0,1-12.69,9.48l-1.59.85c-7.28,3.78-16.05,6.47-18.68,6.08a.54.54,0,0,0-.39.06c-1.14.7.21,7,2.49,8.44C206.35,416.31,231,387.57,230.74,387.35Z"/><path class="cls-8" d="M314.62,393.62a56.92,56.92,0,0,0,14.74,5.78l1.75.41c8,1.72,17.2,2,19.64.92a.61.61,0,0,1,.39,0c1.28.37,1.65,6.81-.17,8.79C345.79,415.1,314.46,393.9,314.62,393.62Z"/><path class="cls-9" d="M131.76,272.41c5.83-12.79,16.31-34.94,25.52-43.58,7.32-6.87,31.51-17.45,39.7-5.92C165.6,222.59,150,247.88,131.76,272.41Z"/><text class="cls-10" transform="translate(171.79 190.11) rotate(-1.34)">d</text><text class="cls-11" transform="translate(194.65 189.91) rotate(25.35)">e</text><text class="cls-12" transform="translate(218.32 204.04) rotate(25.9)">n</text><text class="cls-13" transform="translate(251.09 217.77) rotate(7.68)">t</text><text class="cls-14" transform="translate(282.44 220.83) rotate(-20.76)">e</text><text class="cls-15" transform="translate(310.73 206.5) rotate(-32.22)"> </text><text class="cls-16" transform="translate(321.76 199.33) rotate(-24.55)">l</text><text class="cls-17" transform="translate(331.45 193.85) rotate(-11.17)">a</text><text class="cls-18" transform="matrix(1, 0.06, -0.06, 1, 355.16, 189.23)">b</text><text class="cls-19" transform="translate(380.89 190.57) rotate(15.13)">e</text></svg>